<svg width="1204" height="273" viewBox="0 0 1204 273" fill="none" xmlns="http://www.w3.org/2000/svg">
<g clip-path="url(#clip0_7101_13078)">
<path d="M0 115.731C0 110.422 0.26488 102.99 1.3244 95.2925C6.89651 55.4761 30.2348 0 154.895 0H167.361C284.062 0 305.281 49.3718 305.281 87.5953C305.281 94.4973 304.487 102.46 303.425 109.096C297.061 148.383 275.841 204.919 150.122 204.919H137.391C23.0735 204.919 0 155.282 0 115.731ZM156.486 58.3969C107.683 58.3969 93.6279 80.1631 91.2391 99.0086C90.9742 101.132 90.7094 104.053 90.7094 107.769C90.7094 125.819 103.705 145.992 148.263 145.992C196.534 145.992 210.857 124.491 213.775 104.85C214.305 101.134 214.57 98.2133 214.57 95.0298C214.57 76.9796 201.309 58.3993 156.484 58.3993L156.486 58.3969Z" fill="black"/>
<path d="M436.034 204.919C335.247 204.919 310.844 156.078 310.844 114.936C310.844 107.769 311.374 100.867 312.436 93.9671C319.33 49.3718 347.446 0 463.615 0H471.838C599.149 0 612.41 48.0439 610.818 77.5074H521.436C519.844 72.7286 514.274 56.0062 467.063 56.0062C422.77 56.0062 406.326 76.7097 402.878 99.0062C402.083 104.05 402.083 107.501 402.083 109.889C402.083 131.656 416.406 149.706 455.924 149.706C495.442 149.706 511.888 134.841 513.213 129.002H454.065L460.164 89.4509H610.284L592.248 201.201H538.407C537.613 195.096 534.694 183.416 531.246 177.311C524.35 184.213 499.42 204.917 442.128 204.917H436.029L436.034 204.919Z" fill="black"/>
<path d="M604.974 201.203L608.952 177.049C613.459 146.787 623.007 102.99 729.631 81.7561L767.294 74.8541C792.227 70.3403 794.083 66.8918 794.083 61.5827C794.083 55.4785 789.576 50.4345 759.603 50.4345C720.351 50.4345 717.167 67.9545 716.105 74.3239H627.52C631.763 43.5326 645.553 0 754.034 0H765.97C862.779 0 885.855 27.0753 885.855 57.069C885.855 95.0274 862.514 112.28 781.885 122.898L741.57 128.207C698.072 134.311 688.524 142.276 688.259 148.38H796.472L799.92 127.412H877.631L865.962 201.203H604.976H604.974Z" fill="black"/>
<path d="M880.808 201.203L912.105 3.71582H999.366L987.694 76.977L1087.95 3.71582H1195.64L1070.18 95.5574L1167.26 201.203H1055.6L981.33 118.119L968.069 201.203H880.808Z" fill="black"/>
<path d="M99.0726 118.828C99.0726 115.112 99.3375 112.191 99.6024 110.068C101.991 91.2229 116.047 69.4566 164.85 69.4566C182.878 69.4566 195.792 72.4666 204.801 77.2333C203.17 75.2645 201.138 73.3679 198.617 71.6231C189.491 68.3986 178.202 66.7695 164.852 66.7695C142.207 66.7695 124.817 71.4182 113.164 80.5831C104.06 87.7454 98.449 97.8236 96.9416 109.736C96.5707 112.705 96.3901 115.679 96.3901 118.828C96.3901 118.925 96.395 119.028 96.395 119.127C97.18 121.108 98.2274 123.116 99.6241 125.08C99.2557 122.99 99.0751 120.896 99.0751 118.828H99.0726Z" fill="black"/>
<path d="M310.158 86.5057C310.627 84.2163 311.15 81.975 311.723 79.7796C310.403 73.6368 308.316 67.4578 305.19 61.4619C306.7 66.436 307.742 71.6751 308.32 77.1697C309.108 80.1821 309.724 83.2908 310.158 86.5057Z" fill="black"/>
<path d="M278.126 180.772C266.652 190.79 251.742 198.588 233.81 203.955C213.106 210.149 187.761 213.291 158.482 213.291H145.751C104.823 213.291 72.813 206.867 50.2597 194.164C43.734 191.388 37.7815 188.209 32.4116 184.633C52.1933 202.811 86.8685 215.981 145.749 215.981H158.48C270.322 215.981 299.459 171.236 309.011 133.697C308.537 131.232 308.176 128.814 307.909 126.46C304.573 142.85 297.405 163.941 278.124 180.774L278.126 180.772Z" fill="black"/>
<path d="M525.679 81.0908C527.172 82.8284 528.123 84.4792 528.761 85.8673H531.684C531.159 84.5418 530.367 82.8886 529.091 81.0908H525.679Z" fill="black"/>
<path d="M410.446 120.952C410.446 118.564 410.446 115.113 411.241 110.069C414.689 87.7724 431.133 67.0689 475.426 67.0689C495.29 67.0689 507.782 70.0307 515.707 73.8142C514.662 72.3056 513.147 70.6524 510.918 69.0161C501.741 65.941 489.867 64.3818 475.424 64.3818C454.38 64.3818 437.871 68.9968 426.351 78.099C416.611 85.7939 410.634 96.4119 408.587 109.652C407.759 114.903 407.759 118.544 407.759 120.954C407.759 121.581 407.778 122.198 407.802 122.815C408.681 125.203 409.834 127.415 411.25 129.454C410.711 126.709 410.446 123.866 410.446 120.954V120.952Z" fill="black"/>
<path d="M450.496 213.291H444.397C406.355 213.291 379.872 206.321 361.53 195.879C355.308 193.245 349.584 190.206 344.38 186.753C363.122 203.926 394.332 215.978 444.397 215.978H450.496C496.496 215.978 521.621 202.634 533.312 193.802C533.086 192.879 532.842 191.937 532.582 190.992C521.103 200.007 496.393 213.291 450.496 213.291Z" fill="black"/>
<path d="M601.441 200.621L605.417 176.49C606.365 170.126 607.555 163.371 609.626 156.449L618.653 100.511H612.133L611.699 103.198H615.499L598.33 209.573H549.079C548.829 208.132 548.499 206.503 548.106 204.785H545.347C546.016 207.617 546.512 210.243 546.775 212.261H600.615L601.822 204.785H600.755L601.441 200.618V200.621Z" fill="black"/>
<path d="M616.597 85.8795H614.493L614.059 88.5666H619.183C619.713 78.7534 618.589 66.8798 612.159 55.4062C613.199 59.1537 613.898 63.0673 614.247 67.1425C615.957 72.8973 616.744 79.1221 616.6 85.8795H616.597Z" fill="black"/>
<path d="M494.088 140.064C495.545 139.483 496.857 138.9 498.001 138.334C498.644 138.015 499.244 137.695 499.824 137.374H465.565L466.305 132.586H463.586L462.433 140.061H494.088V140.064Z" fill="black"/>
<path d="M749.56 136.606C733.029 138.927 720.356 141.628 711.307 144.797H720.662C728.086 142.862 737.655 140.99 749.933 139.267L790.248 133.958C791.97 133.731 793.658 133.5 795.329 133.266L795.787 130.487C793.858 130.76 791.902 131.027 789.899 131.292L749.563 136.604L749.56 136.606Z" fill="black"/>
<path d="M891.531 68.1283C891.531 87.4172 885.39 99.6523 871 109.044C861.936 114.958 849.506 119.773 832.472 123.826H843.012C881.629 112.712 894.216 96.0013 894.216 68.1283C894.216 59.9635 892.499 52.0157 888.058 44.7715C888.745 47.6682 889.171 50.6999 889.342 53.8617C890.804 58.2236 891.531 62.9711 891.531 68.1283Z" fill="black"/>
<path d="M723.12 79.4455C724.162 79.2238 725.212 79.0021 726.269 78.7852C729.52 71.1964 738.752 61.4917 767.966 61.4917C778.073 61.4917 785.275 62.0677 790.394 63.0606C790.483 62.6389 790.5 62.1665 790.5 61.5809C790.5 61.1592 790.479 60.7471 790.39 60.3446C784.762 59.2867 777.379 58.8047 767.964 58.8047C734.919 58.8047 725.954 71.1 723.117 79.4455H723.12Z" fill="black"/>
<path d="M879.508 138.471L879.081 141.158H882.85L872.031 209.575H616.503L617.291 204.787H614.57L613.339 212.262H874.326L885.995 138.471H879.508Z" fill="black"/>
<path d="M638.994 82.6938C639.242 81.1153 639.524 79.5175 639.842 77.9053H637.104C636.61 80.4574 636.218 82.9589 635.883 85.3808H699.22C702.447 84.4506 705.768 83.5565 709.175 82.6938H638.994Z" fill="black"/>
<path d="M1186.59 14.7754L1182.92 17.4624H1195.78L1080.7 101.71L1082.53 103.701L1204 14.7754H1186.59Z" fill="black"/>
<path d="M974.142 209.575H892.318L893.077 204.787H890.358L889.173 212.262H976.432L989.197 132.297L986.89 129.716L974.142 209.575Z" fill="black"/>
<path d="M1004.58 17.4624L996.878 65.8317L999.956 63.5808L1007.73 14.7754H1001.23L1000.8 17.4624H1004.58Z" fill="black"/>
<path d="M1165.1 204.786L1169.5 209.575H1065.16L1060.88 204.786H1057.28L1063.96 212.262H1175.62L1168.75 204.786H1167.26H1165.1Z" fill="black"/>
<path d="M703.969 258.896C703.969 257.976 703.969 256.976 704.169 255.537C704.889 250.657 707.367 241.297 725.673 241.297H727.392C743.46 241.297 746.897 248.936 746.897 254.296C746.897 255.337 746.858 256.417 746.697 257.537C745.936 262.658 743.499 272.098 725.152 272.098H723.433C707.244 272.098 703.967 264.218 703.967 258.896H703.969ZM726.231 248.495C716.358 248.495 714.001 252.896 713.722 256.296C713.681 256.817 713.681 257.217 713.681 257.658C713.681 260.897 715.638 264.859 724.632 264.859C734.346 264.859 736.704 260.458 737.183 256.858C737.262 256.258 737.303 255.819 737.303 255.257C737.303 251.978 735.066 248.498 726.231 248.498V248.495Z" fill="black"/>
<path d="M762.041 271.577H752.967L757.685 241.814H781.266C789.981 241.814 792.458 245.135 792.458 249.015C792.458 253.616 788.541 255.696 785.904 256.455C788.623 257.296 790.98 259.175 790.38 263.014L789.581 268.015C789.261 270.136 789.501 270.895 789.619 271.374L789.581 271.574H780.349C780.19 271.254 780.067 270.813 780.269 269.574L780.789 266.294C781.35 262.773 780.031 261.014 775.434 261.014H763.724L762.045 271.574L762.041 271.577ZM778.547 254.416C781.545 254.416 782.704 252.775 782.704 251.175C782.704 249.574 781.825 248.574 779.385 248.574H765.677L764.716 254.413H778.545L778.547 254.416Z" fill="black"/>
<path d="M807.044 271.577H797.971L802.688 241.814H811.761L807.044 271.577Z" fill="black"/>
<path d="M835.858 272.095C821.708 272.095 817.791 264.376 817.791 258.334C817.791 257.375 817.831 256.534 817.99 255.455C818.831 249.654 822.546 241.294 839.174 241.294H840.411C856.639 241.294 859.078 248.574 858.837 252.613H849.244C849.123 251.893 848.524 248.374 839.571 248.374C830.618 248.374 828.02 252.254 827.5 256.055C827.42 256.655 827.379 257.055 827.379 257.614C827.379 261.494 830.098 264.853 837.411 264.853C845.685 264.853 848.803 261.573 849.044 260.535H837.613L838.492 254.893H858.837L856.198 271.574H850.761C850.802 270.454 850.722 268.133 850.402 266.853C849.083 268.413 845.085 272.093 836.652 272.093H835.853L835.858 272.095Z" fill="black"/>
<path d="M874.786 271.577H865.712L870.43 241.814H879.503L874.786 271.577Z" fill="black"/>
<path d="M899.405 241.814L914.594 260.935L917.592 241.814H926.545L921.828 271.577H912.916L896.688 251.495L893.532 271.577H884.579L889.296 241.814H899.41H899.405Z" fill="black"/>
<path d="M931.779 261.014H941.172C941.213 262.894 941.772 265.735 949.246 265.735H949.725C958.038 265.735 958.599 263.694 958.599 262.214C958.599 260.614 957.72 259.735 951.924 259.573L946.968 259.453C936.616 259.214 933.739 255.332 933.739 250.772C933.739 250.213 933.78 249.772 933.859 249.213C934.459 245.133 937.457 241.294 950.686 241.294H953.243C966.993 241.294 969.591 246.174 968.992 251.095H959.639C959.519 249.895 959.198 247.495 951.645 247.495H951.086C943.652 247.495 943.212 248.974 943.212 250.174C943.212 251.295 943.77 252.575 949.167 252.654L953.963 252.734C964.515 252.893 968.313 255.575 968.313 261.094C968.313 261.814 968.233 262.732 968.113 263.333C967.234 267.653 964.677 272.093 950.087 272.093H947.488C932.419 272.093 931.299 265.253 931.779 261.012V261.014Z" fill="black"/>
<path d="M994.885 252.334L994.923 251.934C995.364 248.213 997.481 241.294 1012.19 241.294H1013.75C1026.74 241.294 1029.74 245.494 1029.74 249.654C1029.74 253.813 1027.94 258.096 1017.35 259.494C1014.91 259.814 1010.75 260.373 1008.47 260.732C1001.48 261.812 1000.64 263.733 1000.6 264.533H1018.99L1019.59 260.694H1028.46L1026.74 271.574H991.367L991.887 268.215C992.566 263.894 993.806 256.893 1007.27 254.334C1009.63 253.893 1013.83 253.134 1015.55 252.854C1019.59 252.093 1020.02 251.334 1020.02 250.334C1020.02 249.333 1019.26 248.174 1012.91 248.174C1005.55 248.174 1004.68 250.893 1004.39 252.334H994.88H994.885Z" fill="black"/>
<path d="M1077.82 257.696C1076.94 262.855 1074.34 272.095 1057.07 272.095H1055.35C1040.01 272.095 1036.65 264.215 1036.65 258.894C1036.65 258.014 1036.65 257.052 1036.85 255.614C1037.53 250.575 1040.32 241.294 1057.67 241.294H1059.35C1074.5 241.294 1078.05 248.933 1078.05 254.293C1078.05 255.373 1078.01 256.493 1077.82 257.693L1077.82 257.696ZM1058.23 248.495C1049.04 248.495 1047 252.775 1046.48 255.975C1046.36 256.734 1046.36 257.134 1046.36 257.655C1046.36 260.894 1048.32 264.856 1056.56 264.856C1065.51 264.856 1067.83 260.496 1068.35 256.896C1068.43 256.337 1068.47 255.816 1068.47 255.257C1068.47 251.977 1066.19 248.497 1058.24 248.497L1058.23 248.495Z" fill="black"/>
<path d="M1126.26 257.696C1125.38 262.855 1122.78 272.095 1105.51 272.095H1103.79C1088.45 272.095 1085.09 264.215 1085.09 258.894C1085.09 258.014 1085.09 257.052 1085.29 255.614C1085.96 250.575 1088.76 241.294 1106.11 241.294H1107.79C1122.94 241.294 1126.49 248.933 1126.49 254.293C1126.49 255.373 1126.45 256.493 1126.26 257.693L1126.26 257.696ZM1106.67 248.495C1097.48 248.495 1095.44 252.775 1094.92 255.975C1094.8 256.734 1094.8 257.134 1094.8 257.655C1094.8 260.894 1096.76 264.856 1105 264.856C1113.95 264.856 1116.27 260.496 1116.79 256.896C1116.87 256.337 1116.91 255.816 1116.91 255.257C1116.91 251.977 1114.63 248.497 1106.68 248.497L1106.67 248.495Z" fill="black"/>
<path d="M1174.7 257.696C1173.82 262.855 1171.22 272.095 1153.95 272.095H1152.23C1136.88 272.095 1133.53 264.215 1133.53 258.894C1133.53 258.014 1133.53 257.052 1133.73 255.614C1134.4 250.575 1137.2 241.294 1154.55 241.294H1156.23C1171.38 241.294 1174.93 248.933 1174.93 254.293C1174.93 255.373 1174.89 256.493 1174.69 257.693L1174.7 257.696ZM1155.11 248.495C1145.92 248.495 1143.88 252.775 1143.36 255.975C1143.24 256.734 1143.24 257.134 1143.24 257.655C1143.24 260.894 1145.2 264.856 1153.43 264.856C1162.39 264.856 1164.71 260.496 1165.23 256.896C1165.31 256.337 1165.35 255.816 1165.35 255.257C1165.35 251.977 1163.07 248.497 1155.12 248.497L1155.11 248.495Z" fill="black"/>
</g>
<defs>
<clipPath id="clip0_7101_13078">
<rect width="1204" height="272.095" fill="white"/>
</clipPath>
</defs>
</svg>
