<svg xmlns="http://www.w3.org/2000/svg" width="677" height="185" fill="none"><path fill="#fff" fill-rule="evenodd" d="M163.585 78.34c-1.833 24.729-21.492 47.093-46.753 48.113V107.74c0-17.132-12.21-31.942-29.031-35.21L25.158 60.352v-42.26C25.158 6.724 35.534-1.834 46.694.34l64.432 12.52c35.653 7.76 54.721 35.09 52.474 65.48zM47.374 137.42l-37.071-7.199C4.967 129.188 0 133.267 0 138.707v25.66a13.38 13.38 0 0 0 10.82 13.126l37.071 7.199c5.337 1.034 10.303-3.06 10.303-8.485v-25.66a13.38 13.38 0 0 0-10.82-13.126M84.83 86.425 28.292 75.443c-8.145-1.582-15.698 4.656-15.698 12.948v27.863c.133.03.28.044.413.074l37.072 7.199c12.904 2.512 22.276 13.864 22.276 27.02v5.824l14.353 2.793c8.144 1.582 15.697-4.656 15.697-12.948v-38.461c0-10.391-7.376-19.334-17.575-21.315zm428.215 7.982c9.978 0 18.714 5.055 23.769 12.712l21.182-12.564c-9.431-14.885-25.957-24.73-44.951-24.73-29.37 0-53.286 23.902-53.286 53.288s23.901 53.286 53.286 53.286c18.847 0 35.387-9.829 44.951-24.596l-21.448-12.298c-5.188 7.376-13.791 12.298-23.503 12.298-15.845 0-28.69-12.845-28.69-28.69s12.845-28.691 28.69-28.691zm115.443-24.596c-12.978 0-24.73 5.055-33.465 13.392V24.728h-24.596v147.547h24.596v-49.177c0-15.846 12.845-28.69 28.691-28.69s28.69 12.844 28.69 28.69v49.177H677v-53.966c0-26.784-21.728-48.498-48.497-48.498zm-190.576 81.83h-2.734c-.813 0-1.641-.133-2.454-.266-5.602-1.094-9.83-6.15-9.83-12.018v-40.84h24.597V73.92h-24.597V24.743h-24.596v114.762c0 20.354 16.526 36.88 36.88 36.88 9.282 0 17.767-3.415 24.315-9.15l-11.885-20.221c-2.187 2.868-5.735 4.641-9.696 4.641z" clip-rule="evenodd"/><path fill="#fff" d="M369.607 52.059c7.543 0 13.659-6.115 13.659-13.658 0-7.544-6.116-13.658-13.659-13.658S355.95 30.858 355.95 38.4s6.114 13.658 13.657 13.658m12.299 21.862h-24.597v98.37h24.597z"/><path fill="#fff" fill-rule="evenodd" d="M285.576 24.728h-47.138v147.547h24.596v-28.69h22.542c32.785 0 59.42-26.636 59.42-59.421s-26.635-59.421-59.42-59.421zm0 94.261h-22.542v-69.68h22.542c19.26 0 34.839 15.58 34.839 34.84s-15.579 34.84-34.839 34.84" clip-rule="evenodd"/></svg>