<svg xmlns="http://www.w3.org/2000/svg" width="475" height="64" fill="none"><path fill="#fff" d="M362.692 63.946c13.419 0 20.665-11.277 20.665-23.896s-6.978-23.736-20.772-23.736c-6.276 0-11.845 2.653-14.224 6.56V.741h-12.076V62.98h12.076v-6.626c2.432 4.408 7.561 7.592 14.331 7.592m-3.059-11.223c-7.407 0-11.809-5.907-11.809-13.157s4.777-13.103 11.916-13.103c7.89 0 11.808 6.39 11.808 13.103s-4.562 13.157-11.915 13.157m47.394 10.257h12.238V39.942c0-6.873 2.415-12.35 9.232-12.35s8.265 5.53 8.265 11.974V62.98H449V35.807c0-11.653-5.85-19.493-16.263-19.493-6.014 0-11.857 2.552-13.794 9.422v-6.79h-11.916zm-19.574-49.523h14.136V0h-14.136zm.922 49.523h12.292V18.946h-12.292zm-77.586.966c13.419 0 20.665-11.277 20.665-23.896s-6.978-23.736-20.772-23.736c-6.276 0-11.844 2.653-14.224 6.56V.741h-12.076V62.98h12.076v-6.626c2.432 4.408 7.561 7.592 14.331 7.592m-3.059-11.223c-7.407 0-11.808-5.907-11.808-13.157s4.777-13.103 11.915-13.103c7.89 0 11.809 6.39 11.809 13.103s-4.563 13.157-11.916 13.157m-52.227-.197c-7.698 0-11.926-5.695-11.926-12.691 0-7.485 4.716-12.692 11.926-12.692 7.915 0 12.252 6.02 12.252 12.692 0 6.671-4.499 12.691-12.252 12.691M255.505 64c14.546 0 23.831-10.042 23.831-23.843S269.729 16.1 255.505 16.1s-23.509 10.203-23.509 24.058S241.604 64 255.505 64m-94.627-.59h12.023V20.6l15.297 40.34h11.486l15.298-40.34v42.81h12.023V.74h-15.619l-17.444 47.364L176.551.74h-15.673zm-113.642 0h35.48l14.48-15.46v15.46h39.11V26.391h-21.973V.756H81.085L66.137 16.342V.756H27.76L0 30.077v33.317l31.938.014 15.298-16.333z"/><path fill="#fff" fill-rule="evenodd" d="M453 11c0 6.075 4.925 11 11 11s11-4.925 11-11-4.925-11-11-11-11 4.925-11 11m2 0a9 9 0 0 1 9-9 9 9 0 0 1 9 9 9 9 0 0 1-9 9 9 9 0 0 1-9-9m9.608-5.5H460v11h1.939v-4.424h1.416q.776 0 1.268.183.507.183.79.58.283.38.388 1.022l.283 1.693q.045.275.12.519.074.244.193.427h2.103q-.12-.198-.224-.504a22 22 0 0 1-.179-.655.3.3 0 0 0-.029-.138l-.358-1.74q-.15-.731-.448-1.174a2.04 2.04 0 0 0-.85-.702q.522-.258.895-.686.373-.427.567-.961.194-.55.194-1.145 0-1.006-.433-1.754a2.77 2.77 0 0 0-1.208-1.144q-.775-.397-1.819-.397m.656 4.638q-.388.183-.939.183h-2.386V7.255h2.386q.82 0 1.282.411.477.412.477 1.13a1.5 1.5 0 0 1-.223.823q-.21.336-.597.519" clip-rule="evenodd"/></svg>