<svg xmlns="http://www.w3.org/2000/svg" width="1300" height="208" fill="none"><g fill="#fff" clip-path="url(#a)"><path d="M.003 207.304V0H44.84c41.537 0 74.458 10.684 74.458 61.29 0 31.67-13.168 47.722-33.32 55.122l36.603 90.91H81.045L46.491 122.58h-7.4v84.742H.003zm39.07-171.1v50.19h5.75c23.453 0 34.97-4.934 34.97-25.086s-11.517-25.086-34.97-25.086h-5.75zm94.705 171.1V0H246.49v36.204h-73.624V85.56h55.939v36.204h-55.939v49.355h73.624v36.204H133.778zm239.876-64.99c-6.584 48.956-31.27 64.99-59.639 64.99-35.37 0-62.94-24.269-62.94-103.661S278.627 0 314.015 0c28.387 0 53.055 16.034 59.639 64.99h-39.07c-3.7-19.735-10.284-28.804-20.569-28.804-15.635 0-23.852 14.402-23.852 67.457s8.235 67.457 23.852 67.457c10.285 0 16.869-10.702 20.569-28.804h39.07zM376.105 0h109.411v36.204h-34.971v171.118h-39.07V36.204h-35.37zm98.875 207.304L507.484 0h60.473l32.504 207.304h-39.07l-4.933-30.436h-37.837l-4.517 30.436zm49.771-66.622h25.92L537.503 57.59zm88.839 66.622V0h32.504l44.421 104.06V0h39.07v207.304h-32.504L652.66 103.226v104.078zM807.672 91.309h59.639v18.102c-1.651 74.857-28.387 97.893-62.94 97.893-34.554 0-62.941-24.269-62.941-103.661S769.001 0 804.371 0c28.386 0 53.472 16.034 60.473 64.99h-39.487c-4.118-23.036-10.702-28.804-20.986-28.804-14.801 0-23.852 12.334-23.852 67.457s9.051 67.457 23.852 67.457c11.935 0 20.151-8.235 23.035-43.605h-19.734V91.291zM879.158 0h39.07v171.118h63.757v36.204H879.158zm112.689 207.304V0h112.713v36.204h-73.62V85.56h55.93v36.204h-55.93v49.355h73.62v36.204H991.847zm177.293 0c-33.32 0-55.94-17.286-55.94-53.472v-14.801h39.07v10.285c0 14.402 4.94 21.802 16.87 21.802 11.94 0 16.87-5.75 16.87-17.268 0-32.903-72.39-50.189-72.39-100.36 0-35.787 23.03-53.472 55.52-53.472 34.97 0 56.36 17.685 56.36 56.755v11.518h-39.49V58.007c0-13.169-4.12-21.803-16.87-21.803-11.52 0-16.87 4.934-16.87 16.87 0 31.669 73.23 44.837 73.23 100.776 0 36.604-23.86 53.472-56.36 53.472zm100.62-146.522c-4.15 0-8.05-.78-11.71-2.358-3.65-1.578-6.88-3.755-9.63-6.512a30.7 30.7 0 0 1-6.53-9.631c-1.58-3.646-2.36-7.564-2.36-11.718 0-4.153.78-8.053 2.36-11.717 1.57-3.646 3.75-6.875 6.53-9.632a30.9 30.9 0 0 1 9.63-6.511c3.64-1.578 7.56-2.358 11.71-2.358 4.16 0 8.11.78 11.78 2.358 3.64 1.578 6.87 3.754 9.63 6.511a30.6 30.6 0 0 1 6.49 9.632c1.56 3.646 2.34 7.564 2.34 11.717s-.78 8.072-2.34 11.718-3.72 6.874-6.49 9.631a30.9 30.9 0 0 1-9.63 6.512c-3.65 1.578-7.59 2.358-11.78 2.358m0-5.66c4.54 0 8.66-1.106 12.37-3.319 3.7-2.212 6.68-5.169 8.89-8.887 2.22-3.7 3.32-7.836 3.32-12.37 0-4.535-1.1-8.653-3.32-12.371-2.21-3.7-5.17-6.675-8.89-8.888-3.7-2.213-7.83-3.32-12.37-3.32-4.53 0-8.61 1.107-12.31 3.32s-6.68 5.17-8.89 8.888c-2.21 3.7-3.32 7.836-3.32 12.37 0 4.535 1.11 8.67 3.32 12.37s5.17 6.676 8.89 8.888c3.7 2.213 7.82 3.32 12.31 3.32m7.42-10.81-5.24-9.976h-7.58v9.976h-4.99V16.47h13.41c2.14 0 4.15.743 6 2.23s2.77 3.628 2.77 6.44c0 1.904-.45 3.555-1.37 4.934-.93 1.378-2.05 2.448-3.41 3.174l5.93 11.064zm-12.82-13.876h6.86c1.32 0 2.48-.453 3.48-1.378q1.5-1.388 1.5-3.918c0-1.687-.5-2.975-1.52-3.718-1.02-.744-2.14-1.125-3.36-1.125h-6.96z"/></g><defs><clipPath id="a"><path fill="#fff" d="M0 0h1300v207.304H0z"/></clipPath></defs></svg>